<svg version="1.1" viewBox="0.0 0.0 280.0 275.28871391076115" fill="none" stroke="none" stroke-linecap="square" stroke-miterlimit="10" xmlns:xlink="http://www.w3.org/1999/xlink" xmlns="http://www.w3.org/2000/svg"><clipPath id="p.0"><path d="m0 0l280.0 0l0 275.28873l-280.0 0l0 -275.28873z" clip-rule="nonzero"/></clipPath><g clip-path="url(#p.0)"><path fill="#000000" fill-opacity="0.0" d="m0 0l280.0 0l0 275.28873l-280.0 0z" fill-rule="evenodd"/><path fill="#ffffff" d="m55.45538 106.68241l160.7559 0l0 104.59843l-160.7559 0z" fill-rule="evenodd"/><path stroke="#3d85c6" stroke-width="4.0" stroke-linejoin="round" stroke-linecap="butt" d="m55.45538 106.68241l160.7559 0l0 104.59843l-160.7559 0z" fill-rule="evenodd"/><path fill="#ffffff" d="m3.835958 157.7874l0 0c0 -29.54506 23.951002 -53.496063 53.496063 -53.496063l0 0c14.188038 0 27.794971 5.636177 37.827427 15.66864c10.032463 10.032455 15.66864 23.639389 15.66864 37.827423l0 0c0 29.54506 -23.951004 53.496063 -53.496067 53.496063l0 0c-29.54506 0 -53.496063 -23.951004 -53.496063 -53.496063z" fill-rule="evenodd"/><path stroke="#3d85c6" stroke-width="4.0" stroke-linejoin="round" stroke-linecap="butt" d="m3.835958 157.7874l0 0c0 -29.54506 23.951002 -53.496063 53.496063 -53.496063l0 0c14.188038 0 27.794971 5.636177 37.827427 15.66864c10.032463 10.032455 15.66864 23.639389 15.66864 37.827423l0 0c0 29.54506 -23.951004 53.496063 -53.496067 53.496063l0 0c-29.54506 0 -53.496063 -23.951004 -53.496063 -53.496063z" fill-rule="evenodd"/><path fill="#ffffff" d="m156.25853 151.3307l0 0c0 -33.110985 26.841766 -59.95275 59.95276 -59.95275l0 0c15.900452 0 31.149673 6.316437 42.39299 17.559753c11.243317 11.243324 17.559753 26.492546 17.559753 42.392998l0 0c0 33.110992 -26.841751 59.95276 -59.952744 59.95276l0 0c-33.110992 0 -59.95276 -26.841766 -59.95276 -59.95276z" fill-rule="evenodd"/><path stroke="#3d85c6" stroke-width="4.0" stroke-linejoin="round" stroke-linecap="butt" d="m156.25853 151.3307l0 0c0 -33.110985 26.841766 -59.95275 59.95276 -59.95275l0 0c15.900452 0 31.149673 6.316437 42.39299 17.559753c11.243317 11.243324 17.559753 26.492546 17.559753 42.392998l0 0c0 33.110992 -26.841751 59.95276 -59.952744 59.95276l0 0c-33.110992 0 -59.95276 -26.841766 -59.95276 -59.95276z" fill-rule="evenodd"/><path fill="#ffffff" d="m57.96312 127.13911l0 0c0 -34.867867 28.265991 -63.133858 63.133858 -63.133858l0 0c16.744148 0 32.802483 6.651581 44.642387 18.491478c11.83989 11.839897 18.49147 27.89824 18.49147 44.64238l0 0c0 34.867867 -28.265991 63.133858 -63.133858 63.133858l0 0c-34.867867 0 -63.133858 -28.265991 -63.133858 -63.133858z" fill-rule="evenodd"/><path stroke="#3d85c6" stroke-width="4.0" stroke-linejoin="round" stroke-linecap="butt" d="m57.96312 127.13911l0 0c0 -34.867867 28.265991 -63.133858 63.133858 -63.133858l0 0c16.744148 0 32.802483 6.651581 44.642387 18.491478c11.83989 11.839897 18.49147 27.89824 18.49147 44.64238l0 0c0 34.867867 -28.265991 63.133858 -63.133858 63.133858l0 0c-34.867867 0 -63.133858 -28.265991 -63.133858 -63.133858z" fill-rule="evenodd"/><path fill="#ffffff" d="m31.090155 132.64378l0 0c0 -14.646423 11.873266 -26.519691 26.519686 -26.519691l0 0c7.033455 0 13.778847 2.7940292 18.75225 7.767441c4.973404 4.973404 7.767433 11.718788 7.767433 18.75225l0 0c0 14.646408 -11.873268 26.519684 -26.519684 26.519684l0 0c-14.64642 0 -26.519686 -11.873276 -26.519686 -26.519684z" fill-rule="evenodd"/><path fill="#ffffff" d="m169.41374 126.91032l0 0c0 -14.646416 11.873276 -26.519684 26.519684 -26.519684l0 0c7.0334625 0 13.778854 2.7940292 18.752258 7.767433c4.973404 4.9734116 7.7674255 11.718796 7.7674255 18.75225l0 0c0 14.646416 -11.8732605 26.519691 -26.519684 26.519691l0 0c-14.646408 0 -26.519684 -11.873276 -26.519684 -26.519691z" fill-rule="evenodd"/><path fill="#ffffff" d="m57.33202 144.25302l158.86615 0l0 64.7874l-158.86615 0z" fill-rule="evenodd"/><path fill="#000000" fill-opacity="0.0" d="m35.835957 106.68241l53.165356 0l0 104.59843l-53.165356 0z" fill-rule="evenodd"/><path fill="#5d3dc6" d="m86.757835 133.58475q-9.109375 0 -14.109375 6.859375q-5.0 6.84375 -5.0 19.078125q0 25.46875 19.109375 25.46875q8.015625 0 19.421875 -4.015625l0 13.546875q-9.375 3.90625 -20.9375 3.90625q-16.609375 0 -25.406254 -10.078125q-8.796875 -10.078125 -8.796875 -28.9375q0 -11.875 4.3125 -20.796875q4.328125 -8.9375 12.421879 -13.703133q8.09375 -4.765625 18.984375 -4.765625q11.09375 0 22.296875 5.359375l-5.21875 13.125008q-4.265625 -2.03125 -8.59375 -3.53125q-4.3125 -1.515625 -8.484375 -1.515625z" fill-rule="nonzero"/><path fill="#000000" fill-opacity="0.0" d="m240.22966 210.08661l-53.16536 0l0 -104.59842l53.16536 0z" fill-rule="evenodd"/><path fill="#5d3dc6" d="m189.30779 183.18428q9.109375 0 14.109375 -6.859375q5.0 -6.84375 5.0 -19.078125q0 -25.46875 -19.109375 -25.46875q-8.015625 0 -19.421875 4.015625l0 -13.546867q9.375 -3.90625 20.9375 -3.90625q16.609375 0 25.40625 10.078117q8.796875 10.078125 8.796875 28.9375q0 11.875 -4.3125 20.796875q-4.328125 8.9375 -12.421875 13.703125q-8.09375 4.765625 -18.984375 4.765625q-11.09375 0 -22.296875 -5.359375l5.21875 -13.125q4.265625 2.03125 8.59375 3.53125q4.3125 1.515625 8.484375 1.515625z" fill-rule="nonzero"/></g></svg>