<svg version="1.1" viewBox="0.0 0.0 278.23622047244095 152.99475065616798" fill="none" stroke="none" stroke-linecap="square" stroke-miterlimit="10" xmlns:xlink="http://www.w3.org/1999/xlink" xmlns="http://www.w3.org/2000/svg"><clipPath id="p.0"><path d="m0 0l278.2362 0l0 152.99475l-278.2362 0l0 -152.99475z" clip-rule="nonzero"/></clipPath><g clip-path="url(#p.0)"><path fill="#000000" fill-opacity="0.0" d="m0 0l278.2362 0l0 152.99475l-278.2362 0z" fill-rule="evenodd"/><path fill="#ffffff" d="m54.743782 45.66542l160.75589 0l0 104.59842l-160.75589 0z" fill-rule="evenodd"/><path stroke="#3d85c6" stroke-width="4.0" stroke-linejoin="round" stroke-linecap="butt" d="m54.743782 45.66542l160.75589 0l0 104.59842l-160.75589 0z" fill-rule="evenodd"/><path fill="#ffffff" d="m3.124359 96.77041l0 0c0 -29.54506 23.951002 -53.496063 53.496063 -53.496063l0 0c14.188034 0 27.794968 5.6361732 37.82743 15.6686325c10.032455 10.032455 15.6686325 23.639389 15.6686325 37.82743l0 0c0 29.54506 -23.951004 53.496056 -53.496063 53.496056l0 0c-29.545061 0 -53.496063 -23.950996 -53.496063 -53.496056z" fill-rule="evenodd"/><path stroke="#3d85c6" stroke-width="4.0" stroke-linejoin="round" stroke-linecap="butt" d="m3.124359 96.77041l0 0c0 -29.54506 23.951002 -53.496063 53.496063 -53.496063l0 0c14.188034 0 27.794968 5.6361732 37.82743 15.6686325c10.032455 10.032455 15.6686325 23.639389 15.6686325 37.82743l0 0c0 29.54506 -23.951004 53.496056 -53.496063 53.496056l0 0c-29.545061 0 -53.496063 -23.950996 -53.496063 -53.496056z" fill-rule="evenodd"/><path fill="#ffffff" d="m155.54694 90.31371l0 0c0 -33.110992 26.841751 -59.952755 59.952744 -59.952755l0 0c15.900467 0 31.149689 6.316433 42.39302 17.559753c11.243317 11.243324 17.559753 26.492542 17.559753 42.393l0 0c0 33.110992 -26.841766 59.95275 -59.952774 59.95275l0 0c-33.110992 0 -59.952744 -26.841759 -59.952744 -59.95275z" fill-rule="evenodd"/><path stroke="#3d85c6" stroke-width="4.0" stroke-linejoin="round" stroke-linecap="butt" d="m155.54694 90.31371l0 0c0 -33.110992 26.841751 -59.952755 59.952744 -59.952755l0 0c15.900467 0 31.149689 6.316433 42.39302 17.559753c11.243317 11.243324 17.559753 26.492542 17.559753 42.393l0 0c0 33.110992 -26.841766 59.95275 -59.952774 59.95275l0 0c-33.110992 0 -59.952744 -26.841759 -59.952744 -59.95275z" fill-rule="evenodd"/><path fill="#ffffff" d="m57.251522 66.122116l0 0c0 -34.86787 28.265987 -63.13386 63.133854 -63.13386l0 0c16.74414 0 32.80249 6.6515837 44.64238 18.491478c11.839905 11.839897 18.491486 27.89824 18.491486 44.642384l0 0c0 34.867867 -28.265991 63.13385 -63.133865 63.13385l0 0c-34.867867 0 -63.133854 -28.265984 -63.133854 -63.13385z" fill-rule="evenodd"/><path stroke="#3d85c6" stroke-width="4.0" stroke-linejoin="round" stroke-linecap="butt" d="m57.251522 66.122116l0 0c0 -34.86787 28.265987 -63.13386 63.133854 -63.13386l0 0c16.74414 0 32.80249 6.6515837 44.64238 18.491478c11.839905 11.839897 18.491486 27.89824 18.491486 44.642384l0 0c0 34.867867 -28.265991 63.13385 -63.133865 63.13385l0 0c-34.867867 0 -63.133854 -28.265984 -63.133854 -63.13385z" fill-rule="evenodd"/><path fill="#ffffff" d="m30.378555 71.626785l0 0c0 -14.64642 11.873268 -26.519684 26.519684 -26.519684l0 0c7.0334587 0 13.778847 2.7940292 18.75225 7.767433c4.973404 4.9734077 7.767433 11.718796 7.767433 18.75225l0 0c0 14.646416 -11.873268 26.519684 -26.519684 26.519684l0 0c-14.646416 0 -26.519684 -11.873268 -26.519684 -26.519684z" fill-rule="evenodd"/><path fill="#ffffff" d="m168.70215 65.893326l0 0c0 -14.64642 11.8732605 -26.519688 26.519684 -26.519688l0 0c7.0334625 0 13.778839 2.7940292 18.752243 7.767437c4.973404 4.973404 7.767441 11.718788 7.767441 18.75225l0 0c0 14.646416 -11.8732605 26.519684 -26.519684 26.519684l0 0c-14.646423 0 -26.519684 -11.873268 -26.519684 -26.519684z" fill-rule="evenodd"/><path fill="#ffffff" d="m56.620422 83.23602l158.86613 0l0 64.7874l-158.86613 0z" fill-rule="evenodd"/><path fill="#000000" fill-opacity="0.0" d="m35.12436 45.66542l53.16535 0l0 104.59842l-53.16535 0z" fill-rule="evenodd"/><path fill="#5d3dc6" d="m86.046234 72.56775q-9.109375 0 -14.109375 6.859375q-5.0 6.84375 -5.0 19.078125q0 25.46875 19.109375 25.46875q8.015625 0 19.421875 -4.015625l0 13.546875q-9.375 3.90625 -20.9375 3.90625q-16.609375 0 -25.40625 -10.078125q-8.796875 -10.078125 -8.796875 -28.9375q0 -11.875 4.3125 -20.796875q4.328125 -8.9375 12.421875 -13.703125q8.09375 -4.765625 18.984375 -4.765625q11.09375 0 22.296875 5.359375l-5.21875 13.125q-4.265625 -2.03125 -8.59375 -3.53125q-4.3125 -1.515625 -8.484375 -1.515625z" fill-rule="nonzero"/><path fill="#000000" fill-opacity="0.0" d="m239.51807 149.06963l-53.16536 0l0 -104.598434l53.16536 0z" fill-rule="evenodd"/><path fill="#5d3dc6" d="m188.59619 122.16729q9.109375 0 14.109375 -6.859375q5.0 -6.84375 5.0 -19.078125q0 -25.46875 -19.109375 -25.46875q-8.015625 0 -19.421875 4.015625l0 -13.546875q9.375 -3.90625 20.9375 -3.90625q16.609375 0 25.40625 10.078125q8.796875 10.078125 8.796875 28.9375q0 11.875 -4.3125 20.796875q-4.328125 8.9375 -12.421875 13.703133q-8.09375 4.765625 -18.984375 4.765625q-11.09375 0 -22.296875 -5.359375l5.21875 -13.125008q4.265625 2.03125 8.59375 3.53125q4.3125 1.515625 8.484375 1.515625z" fill-rule="nonzero"/></g></svg>