<svg viewBox="0 0 278.236 152.995" fill="none" stroke-linecap="square" stroke-miterlimit="10" xmlns="http://www.w3.org/2000/svg"><clipPath id="a"><path d="M0 0h278.236v152.995H0V0z"/></clipPath><g clip-path="url(#a)"><path fill="none" d="M0 0h278.236v152.995H0z"/><path fill="#fff" d="M54.744 45.665H215.5v104.599H54.744z" fill-rule="evenodd"/><path stroke="#3d85c6" stroke-width="4" stroke-linejoin="round" stroke-linecap="butt" d="M54.744 45.665H215.5v104.599H54.744z"/><path fill="#fff" d="M3.124 96.77c0-29.545 23.951-53.496 53.496-53.496a53.496 53.496 0 0 1 53.496 53.496c0 29.545-23.95 53.496-53.496 53.496-29.545 0-53.496-23.95-53.496-53.496z" fill-rule="evenodd"/><path stroke="#3d85c6" stroke-width="4" stroke-linejoin="round" stroke-linecap="butt" d="M3.124 96.77c0-29.545 23.951-53.496 53.496-53.496a53.496 53.496 0 0 1 53.496 53.496c0 29.545-23.95 53.496-53.496 53.496-29.545 0-53.496-23.95-53.496-53.496z"/><path fill="#fff" d="M155.547 90.314c0-33.111 26.842-59.953 59.953-59.953a59.953 59.953 0 0 1 59.952 59.953c0 33.11-26.841 59.952-59.952 59.952s-59.953-26.841-59.953-59.952z" fill-rule="evenodd"/><path stroke="#3d85c6" stroke-width="4" stroke-linejoin="round" stroke-linecap="butt" d="M155.547 90.314c0-33.111 26.842-59.953 59.953-59.953a59.953 59.953 0 0 1 59.952 59.953c0 33.11-26.841 59.952-59.952 59.952s-59.953-26.841-59.953-59.952z"/><path fill="#fff" d="M57.252 66.122c0-34.868 28.266-63.134 63.133-63.134a63.134 63.134 0 0 1 63.134 63.134c0 34.868-28.266 63.134-63.134 63.134-34.867 0-63.133-28.266-63.133-63.134z" fill-rule="evenodd"/><path stroke="#3d85c6" stroke-width="4" stroke-linejoin="round" stroke-linecap="butt" d="M57.252 66.122c0-34.868 28.266-63.134 63.133-63.134a63.134 63.134 0 0 1 63.134 63.134c0 34.868-28.266 63.134-63.134 63.134-34.867 0-63.133-28.266-63.133-63.134z"/><path fill="#fff" d="M30.379 71.627c0-14.647 11.873-26.52 26.52-26.52a26.52 26.52 0 0 1 26.519 26.52c0 14.646-11.873 26.52-26.52 26.52-14.646 0-26.52-11.874-26.52-26.52zM168.702 65.893c0-14.646 11.873-26.52 26.52-26.52a26.52 26.52 0 0 1 26.52 26.52c0 14.647-11.874 26.52-26.52 26.52-14.647 0-26.52-11.873-26.52-26.52z" fill-rule="evenodd"/><path fill="#fff" d="M56.62 83.236h158.867v64.787H56.62z" fill-rule="evenodd"/><path fill="none" d="M35.124 45.665H88.29v104.599H35.124z"/><path fill="#5d3dc6" d="M86.046 72.568q-9.11 0-14.11 6.86-5 6.843-5 19.077 0 25.469 19.11 25.469 8.016 0 19.422-4.016v13.547q-9.375 3.906-20.937 3.906-16.61 0-25.407-10.078t-8.797-28.937q0-11.875 4.313-20.797 4.328-8.938 12.422-13.703 8.094-4.766 18.984-4.766 11.094 0 22.297 5.36l-5.219 13.125q-4.265-2.032-8.593-3.532-4.313-1.515-8.485-1.515z"/><path fill="none" d="M239.518 149.07h-53.165V44.47h53.165z"/><path fill="#5d3dc6" d="M188.596 122.167q9.11 0 14.11-6.86 5-6.843 5-19.077 0-25.469-19.11-25.469-8.015 0-19.422 4.016V61.23q9.375-3.906 20.938-3.906 16.61 0 25.406 10.078 8.797 10.078 8.797 28.937 0 11.875-4.313 20.797-4.328 8.938-12.421 13.703-8.094 4.766-18.985 4.766-11.094 0-22.297-5.36l5.22-13.125q4.265 2.032 8.593 3.532 4.312 1.515 8.484 1.515z"/></g></svg>